# xmcd CD database file
#
# Track frame offsets:
#	150
#	11887
#	25987
#	50062
#	74587
#	86587
#	102862
#	123187
#	136537
#
# Disc length: 2325 seconds
#
# Revision: 0
# Processed by: cddbd v1.5.1PL0 Copyright (c) Steve Scherf et al.
# Submitted via: CDex 1.51
#
DISCID=75091309
DTITLE=Rahsaan Roland Kirk - Slightly Latin
DYEAR=1900
DGENRE=Jazz
TTITLE0=Walk On By
TTITLE1=Raouf
TTITLE2=It's All In The Game
TTITLE3=Juarez
TTITLE4=Shaky Money
TTITLE5=Nothing But The Truth
TTITLE6=Safari
TTITLE7=And I Love Her
TTITLE8=Ebrauqs
EXTD=
EXTT0=
EXTT1=
EXTT2=
EXTT3=
EXTT4=
EXTT5=
EXTT6=
EXTT7=
EXTT8=
PLAYORDER=
